<?xml version="1.0" encoding="utf-8"?>
<!-- Svg Vector Icons : http://www.onlinewebfonts.com/icon -->
<!DOCTYPE svg PUBLIC "-//W3C//DTD SVG 1.1//EN" "http://www.w3.org/Graphics/SVG/1.1/DTD/svg11.dtd">
<svg version="1.1" xmlns="http://www.w3.org/2000/svg" xmlns:xlink="http://www.w3.org/1999/xlink" x="0px" y="0px" viewBox="0 0 1000 1000" enable-background="new 0 0 1000 1000" xml:space="preserve">
<metadata> Svg Vector Icons : http://www.onlinewebfonts.com/icon </metadata>
<g><g transform="matrix(1 0 0 -1 0 1952)"><path d="M953.7,1887.6H46.3c-20,0-36.3-16.2-36.3-36.3v-290.4c0-20,16.3-36.3,36.3-36.3v-471.8c0,0-3.4-36.3,35.2-36.3H120c0,0,35.2,1.2,35.2,35.2v73.7h690.7l-0.7-69.2c0-36.7,35.9-38.2,35.9-38.2h36.3c36.3,0,36.3,40.1,36.3,40.1l0,466.6c20,0,36.3,16.3,36.3,36.3v290.4C990,1871.3,973.7,1887.6,953.7,1887.6L953.7,1887.6z M700.7,1851.3l-291.5-290.4H264.1l291.5,290.4H700.7z M45.5,1851.3h75.6l-75.6-72.6V1851.3z M120,1560.9l-74.5,1.1v71.5l220.8,217.8h144.1L120,1560.9z M155.2,1306.8h38.6l-38.6-36.3V1306.8z M155.2,1161.6l0,35.2L300.4,1308h107.8l-178.4-146.3H155.2L155.2,1161.6z M333.6,1161.6l185.6,145.2h106.6l-179.2-145.2H333.6L333.6,1161.6z M771.1,1161.6l72.6,72.6l1.1-72.6H771.1L771.1,1161.6z M663.3,1161.6H554.4L737,1306.8l107.8,1.1L663.3,1161.6z M844.8,1343.1H155.2v181.5h689.6V1343.1z M953.7,1560.9H845.9l107.8,107.8V1560.9z M953.7,1815l-252.9-254.1H554.4l290.4,290.4h108.9V1815L953.7,1815z"/></g></g>
</svg>